<svg width="157" height="156" viewBox="0 0 157 156" fill="none" xmlns="http://www.w3.org/2000/svg">
<rect width="157" height="156" fill="#00BBFF"/>
<path d="M90.8106 85.7653C98.2448 84.7601 111.771 96.2673 116.701 101.492C121.54 106.621 131.002 119.196 130.84 126.324C130.801 128.083 130.485 129.183 128.601 129.359C119.283 130.228 105.24 118.518 99.1438 112.017C94.555 107.126 85.4671 94.964 87.7918 88.0114C88.254 86.6283 89.4007 85.9582 90.8106 85.7673V85.7653Z" fill="white"/>
<path d="M64.506 85.7667C71.55 85.1647 69.4731 92.9024 67.7589 97.0011C62.7761 108.906 47.4204 123.572 35.3507 128.135C33.2386 128.934 26.5241 131.111 26.0639 127.56C25.1609 120.602 34.0382 108.551 38.51 103.434C43.9198 97.2407 56.1299 86.4816 64.506 85.7667Z" fill="white"/>
<path d="M130.393 26.7423C130.607 27.0072 130.845 28.5209 130.853 28.9261C130.98 35.2884 124.772 44.2981 120.887 49.1819C115.696 55.7079 103.262 66.8507 95.2501 69.1572C88.444 71.1189 86.1428 68.0273 88.0325 61.5578C91.7768 48.728 109.697 31.7371 122.157 27.2683C123.832 26.6683 129.14 25.1897 130.393 26.7423Z" fill="white"/>
<path d="M53.531 39.8228C59.0988 44.9617 69.3646 56.7435 69.3704 64.5786C69.3704 66.361 68.4987 69.4974 66.3906 69.7448C60.0368 70.4928 50.6389 63.4136 45.9682 59.4045C38.9495 53.3812 27.1742 39.815 26.1699 30.4332C25.7116 26.1611 26.4195 25.6994 30.6748 26.128C37.6214 26.8273 48.4235 35.1065 53.531 39.8228Z" fill="white"/>
<path d="M36.3981 84.8673C40.3369 84.8673 43.5299 81.6778 43.5299 77.7433C43.5299 73.8088 40.3369 70.6193 36.3981 70.6193C32.4593 70.6193 29.2662 73.8088 29.2662 77.7433C29.2662 81.6778 32.4593 84.8673 36.3981 84.8673Z" fill="white"/>
<path d="M120.194 84.8136C124.117 84.8136 127.297 81.6372 127.297 77.7188C127.297 73.8005 124.117 70.624 120.194 70.624C116.271 70.624 113.091 73.8005 113.091 77.7188C113.091 81.6372 116.271 84.8136 120.194 84.8136Z" fill="white"/>
<path d="M78.3723 125.291C82.2325 125.291 85.3618 122.165 85.3618 118.309C85.3618 114.453 82.2325 111.327 78.3723 111.327C74.5121 111.327 71.3828 114.453 71.3828 118.309C71.3828 122.165 74.5121 125.291 78.3723 125.291Z" fill="white"/>
<path d="M78.3696 44.0524C82.2169 44.0524 85.3357 40.937 85.3357 37.0939C85.3357 33.2509 82.2169 30.1355 78.3696 30.1355C74.5224 30.1355 71.4036 33.2509 71.4036 37.0939C71.4036 40.937 74.5224 44.0524 78.3696 44.0524Z" fill="white"/>
<path d="M78.2835 82.7661C81.0408 82.7661 83.276 80.5334 83.276 77.7791C83.276 75.0249 81.0408 72.7921 78.2835 72.7921C75.5262 72.7921 73.291 75.0249 73.291 77.7791C73.291 80.5334 75.5262 82.7661 78.2835 82.7661Z" fill="white"/>
<path d="M77.75 83.8031C79.8582 83.2576 80.9659 86.7349 80.7104 88.3245C80.3847 90.3583 76.4102 90.0563 75.8271 88.7453C75.3396 87.6466 76.457 84.1362 77.7481 83.8031H77.75Z" fill="white"/>
<path d="M89.0603 79.9255C90.2908 81.1352 88.4616 85.2067 86.6304 84.4021C85.8347 84.0534 83.551 81.8287 83.4613 80.9248C83.2058 78.3378 88.0403 78.9242 89.0603 79.9274V79.9255Z" fill="white"/>
<path d="M79.8934 66.2785C81.1182 65.9902 83.9479 66.8591 83.9947 68.3143C84.0161 68.9708 82.0074 71.5246 81.4185 71.8889C80.3985 72.522 78.9905 72.0584 78.7896 70.8019C78.6161 69.7013 78.5381 66.5961 79.8934 66.2785Z" fill="white"/>
<path d="M82.2264 82.4631C83.3146 82.4105 86.0449 84.3235 86.1892 85.4436C86.4252 87.2689 82.9246 89.3144 81.8071 87.8611C80.9042 86.6884 79.8452 82.58 82.2264 82.4631Z" fill="white"/>
<path d="M73.8701 82.4475C77.5423 81.939 75.3503 87.9858 74.0086 88.2507C72.6668 88.5156 70.3188 87.0819 70.4066 85.6364C70.4592 84.7793 72.9477 82.5741 73.8701 82.4455V82.4475Z" fill="white"/>
<path d="M72.0893 75.2602C72.926 75.9946 72.9474 76.8849 72.2532 77.7362C71.3268 78.868 67.2178 79.2381 66.7302 77.594C66.3655 76.3628 67.2178 73.3745 68.9846 73.766C69.5795 73.8985 71.6428 74.8686 72.0893 75.2602Z" fill="white"/>
<path d="M85.3512 68.8046C87.0888 68.4715 89.0273 71.7657 87.4515 73.254C87.0342 73.6475 85.2888 74.3254 84.6998 74.3994C80.4562 74.941 83.3444 69.1884 85.3492 68.8046H85.3512Z" fill="white"/>
<path d="M88.2966 73.6746C89.9952 73.5188 90.9196 78.3402 89.022 78.6967C87.3293 79.0142 82.4148 77.9545 84.5327 75.5759C84.9501 75.1064 87.7037 73.7272 88.2946 73.6726L88.2966 73.6746Z" fill="white"/>
<path d="M76.0146 66.2825C79.3299 65.887 78.3275 71.8169 76.9292 72.0799C76.3325 72.1909 75.5602 71.9669 75.098 71.5792C74.6729 71.2227 72.9606 68.739 72.9333 68.2656C72.8729 67.1903 75.1351 66.3877 76.0146 66.2844V66.2825Z" fill="white"/>
<path d="M72.6573 69.4173C73.7124 70.3232 75.7679 74.0245 73.3945 74.4024C71.6003 74.6888 68.051 73.1284 69.0495 70.8414C69.6911 69.3706 71.1888 68.1569 72.6554 69.4173H72.6573Z" fill="white"/>
<path d="M72.4754 82.1383C72.3018 82.3916 70.7124 84.0026 70.4725 84.1253C69.3356 84.7156 68.5243 84.1448 68.027 83.1143C67.8086 82.6604 67.2489 81.0572 67.362 80.6364C67.9431 78.4818 75.0633 78.3552 72.4754 82.1383Z" fill="white"/>
</svg>
