<svg width="32" height="32" viewBox="0 0 32 32" fill="none" xmlns="http://www.w3.org/2000/svg">
<g clip-path="url(#clip0_783_299)">
<path d="M19.6609 18.4696C21.8587 18.1724 25.8578 21.5744 27.3154 23.1191C28.7458 24.6355 31.5433 28.3532 31.4955 30.4605C31.484 30.9806 31.3906 31.306 30.8336 31.3579C28.0788 31.6147 23.9269 28.1528 22.1245 26.2309C20.7679 24.7847 18.0811 21.1891 18.7683 19.1336C18.905 18.7247 19.244 18.5266 19.6609 18.4702V18.4696Z" fill="#0153FD"/>
<path d="M11.8842 18.47C13.9668 18.292 13.3527 20.5797 12.8459 21.7914C11.3728 25.311 6.83291 29.6472 3.26453 30.996C2.64011 31.2322 0.654989 31.8761 0.518919 30.8261C0.251968 28.7689 2.8765 25.2062 4.19857 23.6932C5.79797 21.8623 9.40786 18.6814 11.8842 18.47Z" fill="#0153FD"/>
<path d="M31.3634 1.01966C31.4268 1.09799 31.4971 1.54549 31.4994 1.66529C31.5369 3.54629 29.7017 6.20999 28.5532 7.65386C27.0184 9.58325 23.3422 12.8776 20.9736 13.5595C18.9614 14.1395 18.2811 13.2255 18.8397 11.3128C19.9468 7.51967 25.2448 2.49636 28.9285 1.17517C29.4238 0.997779 30.9932 0.560644 31.3634 1.01966Z" fill="#0153FD"/>
<path d="M8.63954 4.88671C10.2856 6.40602 13.3207 9.88928 13.3224 12.2057C13.3224 12.7327 13.0647 13.6599 12.4414 13.7331C10.563 13.9542 7.78449 11.8613 6.40361 10.676C4.32854 8.89521 0.847231 4.8844 0.550298 2.1107C0.414805 0.847671 0.624099 0.711174 1.88217 0.83788C3.9359 1.04464 7.12951 3.49237 8.63954 4.88671Z" fill="#0153FD"/>
<path d="M3.5743 18.204C4.73879 18.204 5.68281 17.261 5.68281 16.0978C5.68281 14.9346 4.73879 13.9916 3.5743 13.9916C2.4098 13.9916 1.46579 14.9346 1.46579 16.0978C1.46579 17.261 2.4098 18.204 3.5743 18.204Z" fill="#0153FD"/>
<path d="M28.348 18.1883C29.5077 18.1883 30.4478 17.2492 30.4478 16.0907C30.4478 14.9323 29.5077 13.9932 28.348 13.9932C27.1882 13.9932 26.2481 14.9323 26.2481 16.0907C26.2481 17.2492 27.1882 18.1883 28.348 18.1883Z" fill="#0153FD"/>
<path d="M15.9837 30.1552C17.1249 30.1552 18.0501 29.231 18.0501 28.091C18.0501 26.951 17.1249 26.0269 15.9837 26.0269C14.8424 26.0269 13.9173 26.951 13.9173 28.091C13.9173 29.231 14.8424 30.1552 15.9837 30.1552Z" fill="#0153FD"/>
<path d="M15.9829 6.13719C17.1203 6.13719 18.0424 5.21613 18.0424 4.07995C18.0424 2.94376 17.1203 2.02271 15.9829 2.02271C14.8455 2.02271 13.9234 2.94376 13.9234 4.07995C13.9234 5.21613 14.8455 6.13719 15.9829 6.13719Z" fill="#0153FD"/>
<path d="M15.9574 17.5828C16.7726 17.5828 17.4334 16.9227 17.4334 16.1084C17.4334 15.2941 16.7726 14.634 15.9574 14.634C15.1422 14.634 14.4814 15.2941 14.4814 16.1084C14.4814 16.9227 15.1422 17.5828 15.9574 17.5828Z" fill="#0153FD"/>
<path d="M15.7997 17.8894C16.423 17.7282 16.7505 18.7562 16.6749 19.2262C16.5786 19.8274 15.4036 19.7382 15.2312 19.3506C15.0871 19.0257 15.4174 17.9879 15.7991 17.8894H15.7997Z" fill="#0153FD"/>
<path d="M19.1435 16.7429C19.5073 17.1006 18.9665 18.3043 18.4251 18.0664C18.1898 17.9633 17.5147 17.3056 17.4881 17.0384C17.4126 16.2735 18.8419 16.4469 19.1435 16.7435V16.7429Z" fill="#0153FD"/>
<path d="M16.4334 12.7084C16.7955 12.6232 17.6321 12.88 17.6459 13.3103C17.6523 13.5044 17.0584 14.2594 16.8843 14.3671C16.5827 14.5543 16.1664 14.4172 16.1071 14.0457C16.0557 13.7203 16.0327 12.8023 16.4334 12.7084Z" fill="#0153FD"/>
<path d="M17.1231 17.4932C17.4449 17.4777 18.2521 18.0433 18.2947 18.3744C18.3645 18.9141 17.3296 19.5188 16.9992 19.0892C16.7322 18.7424 16.4192 17.5278 17.1231 17.4932Z" fill="#0153FD"/>
<path d="M14.6527 17.4885C15.7384 17.3381 15.0903 19.1258 14.6937 19.2042C14.297 19.2825 13.6028 18.8586 13.6287 18.4313C13.6443 18.1779 14.38 17.5259 14.6527 17.4879V17.4885Z" fill="#0153FD"/>
<path d="M14.1261 15.3637C14.3735 15.5809 14.3798 15.8441 14.1746 16.0958C13.9007 16.4304 12.6859 16.5398 12.5417 16.0537C12.4339 15.6897 12.6859 14.8062 13.2082 14.922C13.3841 14.9612 13.9941 15.248 14.1261 15.3637Z" fill="#0153FD"/>
<path d="M18.0471 13.4552C18.5608 13.3567 19.1339 14.3306 18.6681 14.7706C18.5447 14.887 18.0287 15.0874 17.8545 15.1093C16.5999 15.2694 17.4538 13.5686 18.0465 13.4552H18.0471Z" fill="#0153FD"/>
<path d="M18.9178 14.895C19.42 14.8489 19.6933 16.2744 19.1323 16.3798C18.6318 16.4737 17.1788 16.1603 17.805 15.4571C17.9284 15.3183 18.7425 14.9106 18.9172 14.8944L18.9178 14.895Z" fill="#0153FD"/>
<path d="M15.2866 12.7096C16.2668 12.5927 15.9704 14.3458 15.557 14.4236C15.3806 14.4564 15.1523 14.3902 15.0156 14.2755C14.8899 14.1701 14.3837 13.4358 14.3756 13.2959C14.3578 12.978 15.0266 12.7407 15.2866 12.7102V12.7096Z" fill="#0153FD"/>
<path d="M14.2942 13.6364C14.6061 13.9042 15.2138 14.9984 14.5122 15.1102C13.9817 15.1948 12.9324 14.7335 13.2276 14.0574C13.4173 13.6225 13.8601 13.2637 14.2936 13.6364H14.2942Z" fill="#0153FD"/>
<path d="M14.2402 17.3972C14.1889 17.4721 13.719 17.9484 13.6481 17.9846C13.312 18.1592 13.0721 17.9904 12.9251 17.6857C12.8605 17.5515 12.695 17.0775 12.7285 16.9531C12.9003 16.3162 15.0054 16.2787 14.2402 17.3972Z" fill="#0153FD"/>
</g>
<defs>
<clipPath id="clip0_783_299">
<rect width="32" height="32" fill="white"/>
</clipPath>
</defs>
</svg>
